<svg xmlns="http://www.w3.org/2000/svg" viewBox="0 0 88.9 81.71"><defs><style>.cls-1{fill:#1a4385;}.cls-2{fill:#c63b3a;}.cls-3{fill:#fff;}</style></defs><title>资源 33</title><g id="图层_2" data-name="图层 2"><g id="图层_1-2" data-name="图层 1"><path class="cls-1" d="M37.4,52.14l-3.41,0a9.52,9.52,0,0,1-9.46-7.36L14.86,1.56A1.21,1.21,0,0,1,16,.11L19.33.05a9.54,9.54,0,0,1,9.59,7.36L38.6,50.69A1.22,1.22,0,0,1,37.4,52.14Z"/><path class="cls-1" d="M55.22,52.09l-3.41,0a9.53,9.53,0,0,1-9.46-7.36L32.68,1.52A1.21,1.21,0,0,1,33.86.06L37.15,0a9.54,9.54,0,0,1,9.59,7.36l9.68,43.28A1.21,1.21,0,0,1,55.22,52.09Z"/><rect class="cls-1" x="31.52" y="22.89" width="9.52" height="5.43"/><path class="cls-2" d="M66.37,18.4l-.82-6.69C64.72,4.91,61.38.06,57.54.1h-11l1,4.39,6.17.09A2.37,2.37,0,0,1,56,6.46l2.57,12a3.56,3.56,0,0,1-3.5,4.3l-2.84.1.65,3,6.88,0A6.71,6.71,0,0,0,66.37,18.4Z"/><path class="cls-2" d="M58.06,28.43a3.81,3.81,0,0,1,3.73,3l3.29,15.37a7.23,7.23,0,0,0,7,5.72h1.94L68.43,26.19a3.81,3.81,0,0,0-3.73-3l-12.4-.09,1.13,5.27Z"/><path class="cls-1" d="M83,14a36.55,36.55,0,0,0-12.1-7.93c-1.33-.57-2.67-1.06-4-1.51A20.24,20.24,0,0,1,69,11.71l.82,6.69c0,.22,0,.45,0,.67q1,.54,2,1.17c5.66,3.65,6.73,9.94,2.3,14.89l-.31.33,2.19,10.28A36.16,36.16,0,0,0,82,41.48C90.82,33.71,91.2,22.44,83,14Z"/><path class="cls-2" d="M20.51,44.85,17.92,33.24c-.51-.29-1-.59-1.5-.91-5-3.3-6.27-9.23-2.72-13.88.23-.3.47-.58.72-.86L12.14,7.43a27.62,27.62,0,0,0-8.69,7.81A16.75,16.75,0,0,0,.51,29.54C1.56,34,4.28,37.38,7.68,40.27A42.33,42.33,0,0,0,21.86,48,9.32,9.32,0,0,1,20.51,44.85Z"/><path class="cls-3" d="M22.78,68v2.3h1.16v2H22.78v1.32A1.24,1.24,0,0,1,21.38,75H19.94v-1.5c0-.82-.38-1.23-1.13-1.23H11.5V75H8.65V72.29H7.35v-2h1.3V68.86l-.81.2V66.68a4.49,4.49,0,0,0,2-1.58h3l-.67.9h8.48C22.08,66,22.78,66.65,22.78,68Zm.43,9.37V79.6h.73v.74c0,1-.44,1.4-1.33,1.36H7.35V79.6h.92v-2c0-1.4.76-2.1,2.28-2.11H21C22.34,75.56,23.09,76.19,23.21,77.34ZM11,79.6h1.72v-1c0-.72-.34-1.07-1-1.07H11Zm2.92-11.44H11.5v2.11h8.44v-1a1,1,0,0,0-1.09-1.06h-5Zm.47,1.57a3.31,3.31,0,0,0,1.32.24A3.24,3.24,0,0,0,17,69.73c.36-.17.55-.36.55-.58s-.19-.42-.55-.58a3.08,3.08,0,0,0-1.32-.25,3.14,3.14,0,0,0-1.32.25c-.36.16-.54.35-.54.58S14,69.56,14.36,69.73Zm0,4.28a3.14,3.14,0,0,0,1.32.25A3.08,3.08,0,0,0,17,74c.36-.16.55-.35.55-.58s-.19-.39-.55-.56a3.24,3.24,0,0,0-1.32-.24,3.31,3.31,0,0,0-1.32.24c-.36.17-.54.35-.54.56S14,73.85,14.36,74ZM15,79.6h1.61v-1c0-.72-.33-1.07-1-1.07H15Zm3.86,0h1.76V78.46c.05-.64-.33-1-1.12-1h-.64Z"/><path class="cls-3" d="M29,81.66l-1.34,0H26.25l1.2-4.27q1.36-4.6-1.16-5.28l0-3.07c3.78.91,5.06,3.82,3.81,8.72ZM26.69,66.79a1.74,1.74,0,0,1,1.71-1.71,1.56,1.56,0,0,1,1.17.51,1.67,1.67,0,0,1,.5,1.2,1.71,1.71,0,0,1-.5,1.24,1.59,1.59,0,0,1-1.17.5,1.72,1.72,0,0,1-1.71-1.74Zm4.69,14.92h9.71c1.17,0,1.75-.48,1.75-1.44V79.2H38.49V67.83h3.84V65.31H31.81v2.52H33.3q2.16,0,2.16,2.25V79.2H31.38Z"/><path class="cls-3" d="M54.68,65.1l-1,4.13h1.78l6.27,12.36-3.35,0L53,70.94A22.52,22.52,0,0,1,45.15,81.7l0-3.7a23.12,23.12,0,0,0,6.31-12.9Z"/><path class="cls-3" d="M79.89,80a1.53,1.53,0,0,1-1.74,1.67H73.09l0-2.31H76.5c.29,0,.44-.14.44-.42V71c0-1.18-.53-1.77-1.57-1.77h-4L67.48,81.7H64.14l4.18-12.5H64.07V66.9H68.9l.49-1.8h3.1l-.55,1.8H77a2.5,2.5,0,0,1,2.85,2.72Z"/></g></g></svg>